<svg version="1.1" id="Layer_1" xmlns="http://www.w3.org/2000/svg" xmlns:xlink="http://www.w3.org/1999/xlink" x="0px" y="0px"
	 viewBox="0 0 455.3 62.9" style="enable-background:new 0 0 455.3 62.9; background-color: black;" xml:space="preserve">
<style type="text/css">
	.st0{fill:#FFFFFF;}
	.st1{fill:#3B814C;}
</style>
<g>
	<g>
		<g>
			<path class="st0" d="M0,0.8h12.6v17h16.1v-17h12.6v45.3H28.7V28.9H12.6v17.2H0V0.8z"/>
		</g>
		<g>
			<path class="st0" d="M66.1,0.5h12.1l19.3,45.6H84.1L80.8,38H63.3L60,46.1H46.8L66.1,0.5z M77.1,28.2L72,15.3l-5,12.9H77.1z"/>
		</g>
		<g>
			<path class="st0" d="M103.2,0.8h21.4c6.9,0,11.7,1.8,14.8,4.9c2.7,2.6,4,6.1,4,10.6v0.1c0,6.9-3.7,11.5-9.3,13.9l10.8,15.8h-14.5
				l-9.1-13.7h-0.1h-5.4v13.7h-12.6V0.8z M124,22.5c4.3,0,6.7-2.1,6.7-5.4V17c0-3.6-2.6-5.4-6.8-5.4h-8.2v10.9H124z"/>
		</g>
		<g>
			<path class="st0" d="M151.6,0.8h17.5c16.2,0,25.6,9.3,25.6,22.4v0.1c0,13.1-9.5,22.8-25.8,22.8h-17.2V0.8H151.6z M169.3,35
				c7.5,0,12.5-4.1,12.5-11.5v-0.1c0-7.3-5-11.5-12.5-11.5h-5.1V35H169.3z"/>
		</g>
		<g>
			<path class="st0" d="M198.5,39.4l7-8.4c4.5,3.6,9.5,5.4,14.7,5.4c3.4,0,5.2-1.2,5.2-3.1v-0.1c0-1.9-1.5-2.9-7.6-4.3
				c-9.6-2.2-17.1-4.9-17.1-14.2v-0.1c0-8.4,6.7-14.5,17.5-14.5c7.7,0,13.7,2.1,18.7,6l-6.3,8.9c-4.1-2.9-8.7-4.5-12.7-4.5
				c-3,0-4.5,1.3-4.5,2.9v0.1c0,2.1,1.6,3,7.8,4.4c10.4,2.3,16.9,5.6,16.9,14.1v0.1c0,9.3-7.3,14.8-18.3,14.8
				C211.8,46.9,204.1,44.4,198.5,39.4z"/>
		</g>
		<g>
			<path class="st0" d="M246,0.8h12.6v18.4l15.6-18.4h14.9l-17.2,19.5l17.7,25.8h-15.1l-11.4-16.8l-4.6,5.1v11.7H246V0.8z"/>
		</g>
		<g>
			<path class="st0" d="M295,0.8h12.6v45.3H295V0.8z"/>
		</g>
		<g>
			<path class="st0" d="M317.8,0.8h12.6v34.3h22v11h-34.5V0.8H317.8z"/>
		</g>
		<g>
			<path class="st0" d="M358.4,0.8H371v34.3h22v11h-34.5V0.8H358.4z"/>
		</g>
		<g>
			<path class="st0" d="M397.4,39.4l7-8.4c4.5,3.6,9.5,5.4,14.7,5.4c3.4,0,5.2-1.2,5.2-3.1v-0.1c0-1.9-1.5-2.9-7.6-4.3
				c-9.6-2.2-17.1-4.9-17.1-14.2v-0.1C399.5,6.1,406.2,0,417,0c7.7,0,13.7,2.1,18.7,6l-6.3,8.9c-4.1-2.9-8.7-4.5-12.7-4.5
				c-3,0-4.5,1.3-4.5,2.9v0.1c0,2.1,1.6,3,7.8,4.4c10.4,2.3,16.9,5.6,16.9,14.1V32c0,9.3-7.3,14.8-18.3,14.8
				C410.6,46.9,402.9,44.4,397.4,39.4z"/>
		</g>
		<g>
			<rect y="57.7" class="st1" width="188" height="5.3"/>
		</g>
	</g>
	<g>
		<path class="st0" d="M441.7,8.5V1.3h-2.5v-1.5h6.8v1.5h-2.5v7.1H441.7z"/>
		<path class="st0" d="M447,8.5v-8.6h2.6l1.6,5.9l1.5-5.9h2.6v8.6h-1.6V1.7L452,8.5h-1.7l-1.7-6.8v6.8H447z"/>
	</g>
</g>
</svg>
